<svg width="771" height="771" viewBox="0 0 771 771" fill="none" xmlns="http://www.w3.org/2000/svg">
<mask id="path-1-inside-1_8_56" fill="white">
<path fill-rule="evenodd" clip-rule="evenodd" d="M478.02 0L292.98 0V160.822L177.103 44.945L46.26 175.788L163.452 292.98H8.26789e-06L0 478.02H160.368L46.9486 591.439L177.792 722.282L292.98 607.094V771H478.02V607.548L591.439 720.967L722.282 590.124L610.178 478.02H771V292.98H607.094L722.971 177.103L592.128 46.26L478.02 160.368V0Z"/>
</mask>
<path d="M292.98 0V-22H270.98V0L292.98 0ZM478.02 0L500.02 0V-22H478.02V0ZM292.98 160.822L277.423 176.378L314.98 213.935V160.822H292.98ZM177.103 44.945L192.659 29.3886L177.103 13.8323L161.547 29.3886L177.103 44.945ZM46.26 175.788L30.7036 160.232L15.1473 175.788L30.7036 191.344L46.26 175.788ZM163.452 292.98V314.98H216.565L179.008 277.424L163.452 292.98ZM8.26789e-06 292.98L8.26789e-06 270.98H-22L-22 292.98H8.26789e-06ZM0 478.02H-22L-22 500.02H0L0 478.02ZM160.368 478.02L175.924 493.576L213.481 456.02H160.368V478.02ZM46.9486 591.439L31.3923 575.883L15.8359 591.439L31.3923 606.996L46.9486 591.439ZM177.792 722.282L162.235 737.839L177.792 753.395L193.348 737.839L177.792 722.282ZM292.98 607.094H314.98V553.981L277.423 591.538L292.98 607.094ZM292.98 771H270.98V793H292.98V771ZM478.02 771V793H500.02V771H478.02ZM478.02 607.548L493.576 591.992L456.02 554.435V607.548H478.02ZM591.439 720.967L575.883 736.524L591.439 752.08L606.996 736.524L591.439 720.967ZM722.282 590.124L737.839 605.681L753.395 590.124L737.839 574.568L722.282 590.124ZM610.178 478.02V456.02H557.065L594.622 493.576L610.178 478.02ZM771 478.02V500.02H793V478.02H771ZM771 292.98H793V270.98H771V292.98ZM607.094 292.98L591.538 277.424L553.981 314.98H607.094V292.98ZM722.971 177.103L738.527 192.659L754.084 177.103L738.527 161.547L722.971 177.103ZM592.128 46.26L607.684 30.7036L592.128 15.1473L576.572 30.7036L592.128 46.26ZM478.02 160.368H456.02V213.481L493.576 175.924L478.02 160.368ZM292.98 22H478.02V-22H292.98V22ZM314.98 160.822V0L270.98 0V160.822H314.98ZM161.547 60.5013L277.423 176.378L308.536 145.265L192.659 29.3886L161.547 60.5013ZM61.8163 191.344L192.659 60.5013L161.547 29.3886L30.7036 160.232L61.8163 191.344ZM179.008 277.424L61.8163 160.232L30.7036 191.344L147.896 308.536L179.008 277.424ZM8.26789e-06 314.98H163.452V270.98H8.26789e-06L8.26789e-06 314.98ZM22 478.02L22 292.98H-22L-22 478.02H22ZM160.368 456.02H0L0 500.02H160.368V456.02ZM62.505 606.996L175.924 493.576L144.812 462.464L31.3923 575.883L62.505 606.996ZM193.348 706.726L62.505 575.883L31.3923 606.996L162.235 737.839L193.348 706.726ZM277.423 591.538L162.235 706.726L193.348 737.839L308.536 622.65L277.423 591.538ZM314.98 771V607.094H270.98V771H314.98ZM478.02 749H292.98V793H478.02V749ZM456.02 607.548V771H500.02V607.548H456.02ZM606.996 705.411L493.576 591.992L462.463 623.104L575.883 736.524L606.996 705.411ZM706.726 574.568L575.883 705.411L606.996 736.524L737.839 605.681L706.726 574.568ZM594.622 493.576L706.726 605.681L737.839 574.568L625.734 462.464L594.622 493.576ZM771 456.02H610.178V500.02H771V456.02ZM749 292.98V478.02H793V292.98H749ZM607.094 314.98H771V270.98H607.094V314.98ZM707.415 161.547L591.538 277.424L622.65 308.536L738.527 192.659L707.415 161.547ZM576.572 61.8163L707.415 192.659L738.527 161.547L607.684 30.7036L576.572 61.8163ZM493.576 175.924L607.684 61.8163L576.572 30.7036L462.463 144.812L493.576 175.924ZM456.02 0V160.368H500.02V0L456.02 0Z" fill="#8B0202" fill-opacity="0.1" mask="url(#path-1-inside-1_8_56)"/>
</svg>
